# 3ds Max Wavefront OBJ Exporter v0.97b - (c)2007 guruware
# File Created: 31.03.2018 21:44:31

mtllib Thunder.mtl

#
# object node_id29
#

v  -0.7662 82.3077 -14.0741
v  3.3493 75.0502 -14.0741
v  0.9597 76.8646 -14.0741
v  -0.1466 75.7583 -14.0741
v  -2.8018 78.9002 -14.0741
v  4.6769 68.6336 -14.0741
v  0.5172 71.5543 -14.0741
v  0.0304 69.6514 -14.0741
v  -5.0144 73.1916 -14.0741
v  4.1901 61.9072 -14.0741
v  -0.7662 82.3077 -11.2150
v  3.3493 75.0502 -11.2150
v  0.9597 76.8646 -11.2150
v  -0.1466 75.7583 -11.2150
v  -2.8018 78.9002 -11.2150
v  0.5172 71.5543 -11.2150
v  4.6769 68.6336 -11.2150
v  -5.0144 73.1916 -11.2150
v  0.0304 69.6514 -11.2150
v  4.1901 61.9072 -11.2150
# 20 vertices

vn 0.0000 -0.0000 -1.0000
vn -0.0000 -0.0000 -1.0000
vn 0.8699 0.4933 -0.0000
vn -0.9532 -0.3022 0.0000
vn -0.1985 -0.9801 0.0000
vn 0.4759 0.8795 -0.0000
vn -0.9113 -0.4117 0.0000
vn 0.8281 0.5606 -0.0000
vn 0.2838 0.9589 -0.0000
vn -0.2140 -0.9768 0.0000
vn -0.7749 -0.6321 0.0000
vn 0.8810 0.4732 -0.0000
vn -0.0000 0.0000 1.0000
vn 0.0000 0.0000 1.0000
# 14 vertex normals

vt 0.6642 0.2834 0.0000
vt 0.7528 0.3341 0.0000
vt 0.7307 0.3049 0.0000
vt 0.7442 0.2910 0.0000
vt 0.7058 0.2588 0.0000
vt 0.8312 0.3502 0.0000
vt 0.7955 0.2993 0.0000
vt 0.8187 0.2933 0.0000
vt 0.7755 0.2316 0.0000
vt 0.9137 0.3440 0.0000
vt 0.9216 0.9959 0.0000
vt 0.8198 0.9959 0.0000
vt 0.8198 0.9610 0.0000
vt 0.9216 0.9610 0.0000
vt 0.9928 0.9144 0.0000
vt 0.9927 0.9493 0.0000
vt 0.9231 0.9493 0.0000
vt 0.9231 0.9143 0.0000
vt 0.7601 0.9072 0.0000
vt 0.7166 0.9070 0.0000
vt 0.7166 0.8722 0.0000
vt 0.7603 0.8722 0.0000
vt 0.9857 0.9594 0.0000
vt 0.9857 0.9944 0.0000
vt 0.9335 0.9944 0.0000
vt 0.9335 0.9594 0.0000
vt 0.8707 0.8736 0.0000
vt 0.8707 0.9085 0.0000
vt 0.7723 0.9085 0.0000
vt 0.7723 0.8736 0.0000
vt 0.9070 0.9493 0.0000
vt 0.8019 0.9493 0.0000
vt 0.8019 0.9144 0.0000
vt 0.9070 0.9144 0.0000
vt 0.8004 0.8288 0.0000
vt 0.8003 0.8636 0.0000
vt 0.7300 0.8636 0.0000
vt 0.7300 0.8285 0.0000
vt 0.7139 0.8648 0.0000
vt 0.6558 0.8647 0.0000
vt 0.6558 0.8299 0.0000
vt 0.7140 0.8299 0.0000
vt 0.9932 0.8296 0.0000
vt 0.9932 0.8645 0.0000
vt 0.8155 0.8645 0.0000
vt 0.8155 0.8296 0.0000
vt 0.9858 0.9099 0.0000
vt 0.8785 0.9099 0.0000
vt 0.8785 0.8750 0.0000
vt 0.9858 0.8750 0.0000
# 50 texture coords

g node_id29
usemtl 03___Default
s off
f 1/1/1 2/2/1 3/3/1 
f 3/3/1 2/2/1 4/4/2 
f 4/4/2 5/5/2 3/3/1 
f 6/6/2 7/7/2 5/5/2 
f 5/5/2 4/4/2 6/6/2 
f 8/8/2 9/9/2 7/7/2 
f 7/7/2 6/6/2 8/8/2 
f 10/10/1 9/9/2 8/8/2 
f 2/11/3 1/12/3 11/13/3 
f 11/13/3 12/14/3 2/11/3 
f 11/15/4 1/16/4 3/17/4 
f 3/17/4 13/18/4 11/15/4 
f 4/19/5 2/20/5 12/21/5 
f 12/21/5 14/22/5 4/19/5 
f 13/23/6 3/24/6 5/25/6 
f 5/25/6 15/26/6 13/23/6 
f 15/27/7 5/28/7 7/29/7 
f 7/29/7 16/30/7 15/27/7 
f 6/31/8 4/32/8 14/33/8 
f 14/33/8 17/34/8 6/31/8 
f 16/35/9 7/36/9 9/37/9 
f 9/37/9 18/38/9 16/35/9 
f 8/39/10 6/40/10 17/41/10 
f 17/41/10 19/42/10 8/39/10 
f 18/43/11 9/44/11 10/45/11 
f 10/45/11 20/46/11 18/43/11 
f 10/47/12 8/48/12 19/49/12 
f 19/49/12 20/50/12 10/47/12 
f 20/10/13 19/8/14 18/9/14 
f 13/3/13 12/2/13 11/1/13 
f 15/5/14 14/4/14 12/2/13 
f 12/2/13 13/3/13 15/5/14 
f 16/7/14 17/6/14 14/4/14 
f 14/4/14 15/5/14 16/7/14 
f 18/9/14 19/8/14 17/6/14 
f 17/6/14 16/7/14 18/9/14 
# 0 polygons - 36 triangles

